<?xml version="1.0" encoding="utf-8"?>
<!-- Generator: Adobe Illustrator 16.0.0, SVG Export Plug-In . SVG Version: 6.00 Build 0)  -->
<!DOCTYPE svg PUBLIC "-//W3C//DTD SVG 1.1//EN" "http://www.w3.org/Graphics/SVG/1.1/DTD/svg11.dtd">
<svg version="1.1" id="Layer_1" xmlns="http://www.w3.org/2000/svg" xmlns:xlink="http://www.w3.org/1999/xlink" x="0px" y="0px"
	 width="26px" height="26px" viewBox="0 0 26 26" enable-background="new 0 0 26 26" xml:space="preserve">
<g>
	<g>
		<path fill="#FFFFFF" d="M21,2.902v18.2c-1.398-2.354-3.919-6.373-11-7.016V9.912C17.043,9.27,19.588,5.259,21,2.902 M21,0
			c-1.984,0-2.125,8-13,8v8c10.938,0,10.98,8,13,8c0.016,0,0.031,0,0.047,0C22.061,24,23,23.984,23,22c0-2.016,0-18,0-20
			S21.984,0,21,0L21,0z"/>
	</g>
</g>
<rect fill="none" width="26" height="26"/>
<path fill="#FFFFFF" d="M23,9h-2v6h2c1.656,0,3-1.344,3-3l0,0C26,10.344,24.656,9,23,9z"/>
<path fill="#FFFFFF" d="M6,24c-0.551,0-1.104-0.449-1.231-1l-1.625-6H7.93c0,0-0.927,2.779,0.337,3.791
	C10.092,22.252,9.615,24.049,8,24H6z"/>
<path fill="#FFFFFF" d="M3,8c-1.656,0-3,1.344-3,3v2c0,1.656,1.344,3,3,3h7V8H3z M8,12H3c0-1.987,1.487-2,1.487-2H8V12z M19,11.108
	c0,0-3.154,0.892-7,0.892v-1c3.866,0,7-2.941,7-2.941V11.108z"/>
</svg>
