<?xml version="1.0" encoding="utf-8"?>
<!-- Generator: Adobe Illustrator 16.0.0, SVG Export Plug-In . SVG Version: 6.00 Build 0)  -->
<!DOCTYPE svg PUBLIC "-//W3C//DTD SVG 1.1//EN" "http://www.w3.org/Graphics/SVG/1.1/DTD/svg11.dtd">
<svg version="1.1" id="Layer_1" xmlns="http://www.w3.org/2000/svg" xmlns:xlink="http://www.w3.org/1999/xlink" x="0px" y="0px"
	 width="195.403px" height="94.607px" viewBox="0 0 195.403 94.607" enable-background="new 0 0 195.403 94.607"
	 xml:space="preserve">
<path fill="#FFFFFF" d="M41.128,56.566c-0.61,0.672-1.037,0.854-1.586,0.854c-0.976,0-1.769-0.793-1.769-1.768
	c0-0.428,0.122-0.732,0.305-1.037c1.708-2.686,5.002-4.82,10.127-4.82c7.076,0,10.98,4.148,10.98,10.371v16.775
	c0,1.037-0.854,1.893-1.891,1.893s-1.891-0.855-1.891-1.893v-2.195c-1.525,2.867-5.063,4.393-8.724,4.393
	c-6.466,0-10.554-3.111-10.554-8.725c0-5.367,4.087-8.602,10.676-8.602h8.602v-1.646c0-4.148-2.745-6.711-7.198-6.711
	C44.971,53.455,43.019,54.431,41.128,56.566z M55.403,67.791v-2.562h-8.602c-3.965,0-6.71,1.648-6.71,5.186
	c0,3.174,2.196,5.186,6.955,5.186C51.315,75.599,55.403,72.976,55.403,67.791z"/>
<path fill="#FFFFFF" d="M70.708,36.861v34.833c0,2.441,1.059,3.479,2.44,3.479c0.976,0,1.831,0.793,1.831,1.83
	s-0.854,1.83-1.831,1.83c-4.087,0-6.344-2.441-6.344-7.139V36.861c0-1.036,0.915-1.951,1.952-1.951
	C69.854,34.91,70.708,35.825,70.708,36.861z"/>
<path fill="#FFFFFF" d="M82.974,56.566c-0.611,0.672-1.037,0.854-1.587,0.854c-0.976,0-1.769-0.793-1.769-1.768
	c0-0.428,0.121-0.732,0.305-1.037c1.708-2.686,5.002-4.82,10.127-4.82c7.076,0,10.98,4.148,10.98,10.371v16.775
	c0,1.037-0.854,1.893-1.891,1.893s-1.891-0.855-1.891-1.893v-2.195c-1.525,2.867-5.064,4.393-8.724,4.393
	c-6.467,0-10.554-3.111-10.554-8.725c0-5.367,4.087-8.602,10.676-8.602h8.602v-1.646c0-4.148-2.746-6.711-7.199-6.711
	C86.816,53.455,84.864,54.431,82.974,56.566z M97.249,67.791v-2.562h-8.602c-3.966,0-6.71,1.648-6.71,5.186
	c0,3.174,2.195,5.186,6.954,5.186C93.161,75.599,97.249,72.976,97.249,67.791z"/>
<path fill="#FFFFFF" d="M127.381,78.894v-3.477c-1.465,1.891-4.27,3.721-8.236,3.721c-7.93,0-12.627-4.637-12.627-14.641
	c0-10.006,4.697-14.703,12.627-14.703c6.955,0,12.201,4.027,12.201,12.08v17.02c0,8.297-5.672,11.713-12.506,11.713
	c-4.758,0-8.174-1.77-10.188-4.209c-0.182-0.244-0.365-0.611-0.365-1.098c0-1.037,0.854-1.893,1.891-1.893
	c0.488,0,0.916,0.123,1.465,0.672c1.402,1.402,3.355,2.867,7.197,2.867C123.844,86.947,127.381,84.445,127.381,78.894z
	 M127.381,61.875c0-5.797-3.66-8.541-8.236-8.541c-5.611,0-8.723,3.537-8.723,11.164c0,7.502,3.111,11.102,8.723,11.102
	c5.736,0,8.236-4.941,8.236-4.941V61.875z"/>
<path fill="#FFFFFF" d="M141.653,56.566c-0.609,0.672-1.037,0.854-1.586,0.854c-0.975,0-1.768-0.793-1.768-1.768
	c0-0.428,0.121-0.732,0.305-1.037c1.707-2.686,5.002-4.82,10.127-4.82c7.076,0,10.98,4.148,10.98,10.371v16.775
	c0,1.037-0.854,1.893-1.891,1.893s-1.893-0.855-1.893-1.893v-2.195c-1.525,2.867-5.062,4.393-8.723,4.393
	c-6.467,0-10.555-3.111-10.555-8.725c0-5.367,4.088-8.602,10.676-8.602h8.602v-1.646c0-4.148-2.744-6.711-7.197-6.711
	C145.497,53.455,143.545,54.431,141.653,56.566z M155.928,67.791v-2.562h-8.602c-3.965,0-6.711,1.648-6.711,5.186
	c0,3.174,2.197,5.186,6.955,5.186C151.842,75.599,155.928,72.976,155.928,67.791z"/>
<path fill="#56C6D2" d="M183.211,54.625c0.572-1.469,1.145-2.939,1.717-4.41c-0.1-0.105-0.033-0.215,0.004-0.318
	c0.475-1.33,0.734-2.713,0.924-4.102c0.541-3.97,0.361-7.899-0.66-11.794c-0.742-2.83-1.877-5.482-3.389-7.971
	c-1.414-2.33-3.117-4.442-5.131-6.296c-2.463-2.268-5.174-4.153-8.281-5.438C168.229,14.227,168,14.236,167.94,14
	c-0.572-0.225-1.146-0.447-1.721-0.671c-0.107,0.101-0.217,0.038-0.32-0.003c-1.525-0.619-3.125-0.955-4.742-1.23
	c-3.307-0.561-6.613-0.554-9.92,0.016c-1.861,0.322-3.66,0.846-5.443,1.48c-2.588,0.919-4.826,2.314-6.668,4.356
	c-1.922,2.127-3.082,4.64-3.57,7.422c-0.629,3.577-0.012,7.011,1.877,10.116c2.213,3.64,5.416,5.996,9.623,6.932
	c2.488,0.555,4.938,0.466,7.375-0.236c1.213-0.35,2.346-0.938,3.555-1.271c4.188-1.151,8.205-0.759,11.979,1.497
	c2.676,1.6,4.641,3.841,5.934,6.658c0.807,1.758,1.207,3.623,1.314,5.57c0.146,2.65-0.502,5.123-1.646,7.453
	c-0.926,1.885-2.27,3.492-3.949,4.791c-0.146,0.113-0.35,0.203-0.35,0.492c0.309-0.166,0.584-0.295,0.836-0.457
	c1.918-1.244,3.734-2.615,5.328-4.266c1.973-2.041,3.701-4.258,5.068-6.76C182.729,55.47,182.811,54.951,183.211,54.625z"/>
<g>
	<path fill="#FFFFFF" d="M17.198,33.717l-4.454,11.164c-0.305,0.793-0.976,1.464-2.013,1.464c-1.159,0-2.074-0.976-2.074-2.074
		c0-0.244,0.061-0.672,0.183-0.916L23.726,5.717c0.305-0.732,0.854-1.404,1.952-1.404c1.037,0,1.708,0.672,2.013,1.404
		l14.885,37.639c0.122,0.305,0.183,0.732,0.183,0.916c0,1.098-0.854,2.074-2.135,2.074c-1.037,0-1.708-0.611-2.013-1.404
		l-4.393-11.225H17.198z M25.678,11.268l-7.199,18.668h14.458L25.678,11.268z"/>
	<path fill="#FFFFFF" d="M46.233,32.01c0-10.006,4.636-14.703,12.506-14.703c6.955,0,11.957,3.965,11.957,12.018v26.841
		c0,1.1-0.854,1.953-1.952,1.953s-1.952-0.854-1.952-1.953v-13.48c-1.403,1.951-4.393,3.964-8.297,3.964
		C50.625,46.65,46.233,42.014,46.233,32.01z M66.792,29.324c0-5.795-3.355-8.479-8.053-8.479c-5.612,0-8.602,3.537-8.602,11.164
		c0,7.502,3.05,11.102,8.602,11.102c5.734,0,8.053-5.367,8.053-5.367V29.324z"/>
	<path fill="#FFFFFF" d="M81.247,19.625v15.922c0,3.965,1.281,7.383,7.443,7.383c6.161,0,7.441-3.418,7.441-7.383V19.625
		c0-1.098,0.916-1.953,2.013-1.953c1.037,0,1.891,0.855,1.891,1.953v15.922c0,5.795-1.891,11.103-11.345,11.103
		c-9.395,0-11.348-5.308-11.348-11.103V19.625c0-1.098,0.854-1.953,1.953-1.953C80.332,17.672,81.247,18.527,81.247,19.625z"/>
	<path fill="#FFFFFF" d="M107.428,9.621c0-1.77,0.854-2.441,2.318-2.441c1.463,0,2.318,0.672,2.318,2.441
		c0,1.463-0.855,2.316-2.318,2.316C108.282,11.938,107.428,11.084,107.428,9.621z M111.698,44.393c0,1.098-0.854,1.953-1.951,1.953
		c-1.1,0-1.953-0.855-1.953-1.953V19.625c0-1.098,0.854-1.953,1.953-1.953c1.098,0,1.951,0.855,1.951,1.953V44.393z"/>
</g>
<circle fill="#56C6D2" cx="167.077" cy="71.359" r="3.158"/>
</svg>
